<svg width="13" height="11" viewBox="0 0 13 11" fill="none" xmlns="http://www.w3.org/2000/svg">
<path fill-rule="evenodd" clip-rule="evenodd" d="M0 5.5C0 5.29165 0.0827656 5.09184 0.230089 4.94452C0.377412 4.79719 0.577226 4.71443 0.785573 4.71443H9.88722L6.51397 1.34275C6.36646 1.19524 6.28359 0.995175 6.28359 0.786565C6.28359 0.577955 6.36646 0.377889 6.51397 0.23038C6.66148 0.0828702 6.86154 0 7.07015 0C7.27876 0 7.47883 0.0828702 7.62634 0.23038L12.3398 4.94381C12.4129 5.01679 12.471 5.10348 12.5106 5.19892C12.5502 5.29436 12.5706 5.39667 12.5706 5.5C12.5706 5.60333 12.5502 5.70564 12.5106 5.80108C12.471 5.89652 12.4129 5.98321 12.3398 6.05619L7.62634 10.7696C7.47883 10.9171 7.27876 11 7.07015 11C6.86154 11 6.66148 10.9171 6.51397 10.7696C6.36646 10.6221 6.28359 10.422 6.28359 10.2134C6.28359 10.0048 6.36646 9.80476 6.51397 9.65725L9.88722 6.28557H0.785573C0.577226 6.28557 0.377412 6.20281 0.230089 6.05548C0.0827656 5.90816 0 5.70835 0 5.5Z" fill="white"/>
</svg>
