<svg width="20" height="26" viewBox="0 0 20 26" fill="none" xmlns="http://www.w3.org/2000/svg">
<path fill-rule="evenodd" clip-rule="evenodd" d="M9.46567 1.73233C9.84949 1.3485 10.3701 1.13287 10.9129 1.13287C11.4557 1.13287 11.9763 1.3485 12.3601 1.73233C12.695 2.06729 12.9019 2.5064 12.9491 2.97355C13.2655 2.78276 13.6305 2.6795 14.0061 2.6795C14.5489 2.6795 15.0695 2.89513 15.4533 3.27895C15.8372 3.66277 16.0528 4.18335 16.0528 4.72616V6.06112C16.3669 5.87403 16.7283 5.77287 17.1001 5.77287C17.6429 5.77287 18.1635 5.9885 18.5473 6.37232C18.9311 6.75614 19.1467 7.27672 19.1467 7.81953V16.3261C19.1467 16.3349 19.1465 16.3437 19.1461 16.3524C19.1413 19.2653 18.3435 21.5169 16.9356 23.046C15.5199 24.5836 13.5403 25.3327 11.2995 25.3327C9.09647 25.3327 7.49298 24.8361 6.30278 23.991C5.1147 23.1474 4.38993 21.993 3.87839 20.7727C3.8754 20.7656 3.87258 20.7584 3.86993 20.7512L1.32472 13.7926L1.32446 13.7919C1.13959 13.2905 1.07318 12.7657 1.19339 12.2786C1.31695 11.7779 1.62897 11.3567 2.12047 11.0775L3.27412 11.8008C3.05691 11.7813 2.82647 11.8264 2.61456 11.9469L2.61447 11.9469C2.35638 12.0935 2.22062 12.2898 2.16427 12.5181C2.10462 12.7599 2.12606 13.0756 2.26289 13.4464L2.26338 13.4477L4.80506 20.3967C5.27372 21.5113 5.90141 22.4796 6.88172 23.1757C7.863 23.8724 9.24915 24.3327 11.2995 24.3327C13.3119 24.3327 15.0057 23.6657 16.1999 22.3686C17.3978 21.0676 18.1461 19.0748 18.1461 16.3261C18.1461 16.3175 18.1463 16.3089 18.1467 16.3003V7.81953C18.1467 7.54194 18.0365 7.27571 17.8402 7.07943C17.6439 6.88314 17.3777 6.77287 17.1001 6.77287C16.8225 6.77287 16.5563 6.88314 16.36 7.07943C16.1637 7.27571 16.0534 7.54194 16.0534 7.81953V13.2328C16.0534 13.509 15.8296 13.7328 15.5534 13.7328C15.5393 13.7328 15.5253 13.7322 15.5115 13.7311C15.2547 13.7101 15.0528 13.495 15.0528 13.2328V4.72616C15.0528 4.44857 14.9425 4.18234 14.7462 3.98606C14.5499 3.78977 14.2837 3.6795 14.0061 3.6795C13.7285 3.6795 13.4623 3.78977 13.266 3.98606C13.0724 4.17966 12.9625 4.44129 12.9595 4.71476V12.4595C12.9595 12.7356 12.7357 12.9595 12.4595 12.9595C12.3765 12.9595 12.2981 12.9392 12.2292 12.9034C12.0689 12.8201 11.9595 12.6525 11.9595 12.4594V4.72616L11.9595 4.71022V3.17953C11.9595 2.90194 11.8493 2.63572 11.653 2.43943C11.4567 2.24315 11.1905 2.13287 10.9129 2.13287C10.6353 2.13287 10.3691 2.24315 10.1728 2.43943C9.97649 2.63572 9.86622 2.90194 9.86622 3.17953V5.46472L9.86652 5.49959V12.5079C9.86652 12.784 9.64266 13.0079 9.36652 13.0079C9.09037 13.0079 8.86652 12.784 8.86652 12.5079V12.4769L8.86622 12.4595V5.47466C8.85983 5.2061 8.75036 4.94989 8.55996 4.75949C8.36367 4.5632 8.09745 4.45293 7.81986 4.45293C7.54227 4.45293 7.27605 4.5632 7.07976 4.75949C6.88347 4.95578 6.7732 5.222 6.7732 5.49959V16.3262C6.7732 16.585 6.57654 16.7979 6.3245 16.8236C6.28063 16.8282 6.23684 16.8268 6.19419 16.82C6.14623 16.8124 6.10054 16.7979 6.05814 16.7777C5.95033 16.7265 5.86038 16.6367 5.81102 16.5178L4.05703 12.2917C3.89851 12.006 3.60138 11.8301 3.2742 11.8008L2.12057 11.0774C3.08305 10.5305 4.39694 10.7899 4.95161 11.8438C4.95868 11.8573 4.96514 11.871 4.97096 11.885L5.7732 13.818V5.49959C5.7732 4.95678 5.98883 4.4362 6.37265 4.05238C6.75648 3.66856 7.27705 3.45293 7.81986 3.45293C8.19129 3.45293 8.5523 3.55389 8.86622 3.74062V3.17953C8.86622 2.63672 9.08185 2.11615 9.46567 1.73233ZM3.2742 11.8008C3.27417 11.8008 3.27414 11.8008 3.27412 11.8008L4.05703 12.2917L3.2742 11.8008Z" fill="black"/>
<path d="M9.46567 1.73233L9.64245 1.9091L9.64245 1.9091L9.46567 1.73233ZM12.3601 1.73233L12.1833 1.9091L12.1833 1.9091L12.3601 1.73233ZM12.9491 2.97355L12.7004 2.99871C12.709 3.08395 12.7607 3.15884 12.8373 3.19716C12.914 3.23548 13.0049 3.23188 13.0783 3.18764L12.9491 2.97355ZM15.4533 3.27895L15.2766 3.45573L15.2766 3.45573L15.4533 3.27895ZM16.0528 6.06112H15.8028C15.8028 6.15104 15.8511 6.23404 15.9293 6.27847C16.0074 6.3229 16.1034 6.32192 16.1807 6.27591L16.0528 6.06112ZM18.5473 6.37232L18.7241 6.19555L18.7241 6.19554L18.5473 6.37232ZM19.1461 16.3524L18.8961 16.3395L18.8961 16.352L19.1461 16.3524ZM16.9356 23.046L16.7517 22.8766L16.7517 22.8766L16.9356 23.046ZM6.30278 23.991L6.15804 24.1949L6.15804 24.1949L6.30278 23.991ZM3.87839 20.7727L3.64782 20.8694L3.64783 20.8694L3.87839 20.7727ZM3.86993 20.7512L3.63514 20.8371L3.63515 20.8371L3.86993 20.7512ZM1.32472 13.7926L1.55951 13.7067L1.55926 13.706L1.32472 13.7926ZM1.32446 13.7919L1.0899 13.8784L1.08992 13.8784L1.32446 13.7919ZM1.19339 12.2786L1.43611 12.3385L1.43611 12.3385L1.19339 12.2786ZM2.12047 11.0775L2.25328 10.8656C2.17537 10.8168 2.07694 10.8147 1.99699 10.8601L2.12047 11.0775ZM2.61456 11.9469L2.49104 11.7295L2.49028 11.7299L2.61456 11.9469ZM2.61447 11.9469L2.73795 12.1643L2.73875 12.1638L2.61447 11.9469ZM2.16427 12.5181L2.40699 12.578L2.40699 12.578L2.16427 12.5181ZM2.26289 13.4464L2.49744 13.3599L2.49744 13.3599L2.26289 13.4464ZM2.26338 13.4477L2.49817 13.3619L2.49793 13.3612L2.26338 13.4477ZM4.80506 20.3967L4.57001 20.4827L4.5746 20.4936L4.80506 20.3967ZM6.88172 23.1757L7.02645 22.9718L7.02645 22.9718L6.88172 23.1757ZM16.1999 22.3686L16.016 22.1993L16.016 22.1993L16.1999 22.3686ZM18.1467 16.3003L18.3967 16.313V16.3003H18.1467ZM17.8402 7.07943L18.017 6.90265L18.017 6.90265L17.8402 7.07943ZM16.36 7.07943L16.5368 7.25621L16.5368 7.2562L16.36 7.07943ZM15.5115 13.7311L15.5322 13.4819L15.5318 13.4819L15.5115 13.7311ZM14.7462 3.98606L14.923 3.80928L14.923 3.80928L14.7462 3.98606ZM13.266 3.98606L13.4428 4.16284L13.4428 4.16284L13.266 3.98606ZM12.9595 4.71476L12.7095 4.71204V4.71476H12.9595ZM12.2292 12.9034L12.3445 12.6816L12.3445 12.6815L12.2292 12.9034ZM11.9595 4.72616L11.7095 4.72518V4.72616H11.9595ZM11.9595 4.71022L12.2095 4.71119V4.71022H11.9595ZM11.653 2.43943L11.8298 2.26266L11.8298 2.26266L11.653 2.43943ZM10.1728 2.43943L10.3496 2.61621L10.3496 2.61621L10.1728 2.43943ZM9.86622 5.46472L9.61621 5.46472L9.61623 5.46685L9.86622 5.46472ZM9.86652 5.49959L10.1165 5.49959L10.1165 5.49746L9.86652 5.49959ZM8.86652 12.4769H9.11655L9.11648 12.4726L8.86652 12.4769ZM8.86622 12.4595H8.61618L8.61626 12.4637L8.86622 12.4595ZM8.86622 5.47466L9.11629 5.47466L9.11615 5.46871L8.86622 5.47466ZM8.55996 4.75949L8.38318 4.93627L8.38318 4.93627L8.55996 4.75949ZM7.07976 4.75949L7.25654 4.93627L7.25654 4.93627L7.07976 4.75949ZM6.3245 16.8236L6.29915 16.5749L6.29857 16.5749L6.3245 16.8236ZM6.19419 16.82L6.23374 16.5731L6.23339 16.5731L6.19419 16.82ZM6.05814 16.7777L6.1658 16.5521L6.16541 16.5519L6.05814 16.7777ZM5.81102 16.5178L6.04192 16.422L6.04192 16.422L5.81102 16.5178ZM4.05703 12.2917L4.28793 12.1959C4.28432 12.1871 4.28021 12.1786 4.27563 12.1704L4.05703 12.2917ZM2.12057 11.0774L1.99706 10.86C1.92055 10.9035 1.87253 10.984 1.87062 11.072C1.86872 11.16 1.9132 11.2425 1.98775 11.2892L2.12057 11.0774ZM4.95161 11.8438L5.17284 11.7274L5.17284 11.7274L4.95161 11.8438ZM4.97096 11.885L4.74006 11.9809L4.74006 11.9809L4.97096 11.885ZM5.7732 13.818L5.5423 13.9138C5.58801 14.0239 5.70512 14.0865 5.82206 14.0631C5.939 14.0398 6.0232 13.9372 6.0232 13.818H5.7732ZM6.37265 4.05238L6.54943 4.22916L6.54943 4.22916L6.37265 4.05238ZM8.86622 3.74062L8.73841 3.95548C8.81567 4.00144 8.91166 4.00238 8.98981 3.95794C9.06795 3.9135 9.11622 3.83052 9.11622 3.74062H8.86622ZM3.40692 11.589C3.28994 11.5156 3.13565 11.551 3.06231 11.668C2.98896 11.785 3.02433 11.9393 3.14131 12.0126L3.40692 11.589ZM4.05703 12.2917L3.92423 12.5035C4.0412 12.5768 4.19549 12.5415 4.26884 12.4245C4.34218 12.3075 4.30682 12.1532 4.18984 12.0799L4.05703 12.2917ZM3.40701 11.589C3.29004 11.5156 3.13575 11.551 3.0624 11.668C2.98904 11.785 3.02441 11.9393 3.14138 12.0126L3.40701 11.589ZM10.9129 0.882874C10.3038 0.882874 9.7196 1.12484 9.28889 1.55555L9.64245 1.9091C9.97939 1.57216 10.4364 1.38287 10.9129 1.38287V0.882874ZM12.5369 1.55555C12.1062 1.12484 11.522 0.882874 10.9129 0.882874V1.38287C11.3894 1.38287 11.8464 1.57216 12.1833 1.9091L12.5369 1.55555ZM13.1979 2.9484C13.1449 2.42418 12.9127 1.93143 12.5369 1.55555L12.1833 1.9091C12.4773 2.20314 12.6589 2.58862 12.7004 2.99871L13.1979 2.9484ZM14.0061 2.4295C13.5846 2.4295 13.1751 2.54538 12.82 2.75947L13.0783 3.18764C13.356 3.02014 13.6764 2.9295 14.0061 2.9295V2.4295ZM15.6301 3.10217C15.1994 2.67147 14.6152 2.4295 14.0061 2.4295V2.9295C14.4826 2.9295 14.9396 3.11879 15.2766 3.45573L15.6301 3.10217ZM16.3028 4.72616C16.3028 4.11705 16.0608 3.53288 15.6301 3.10217L15.2766 3.45573C15.6135 3.79267 15.8028 4.24965 15.8028 4.72616H16.3028ZM16.3028 6.06112V4.72616H15.8028V6.06112H16.3028ZM17.1001 5.52287C16.6829 5.52287 16.2774 5.6364 15.9249 5.84633L16.1807 6.27591C16.4565 6.11167 16.7737 6.02287 17.1001 6.02287V5.52287ZM18.7241 6.19554C18.2934 5.76484 17.7092 5.52287 17.1001 5.52287V6.02287C17.5766 6.02287 18.0336 6.21216 18.3705 6.5491L18.7241 6.19554ZM19.3967 7.81953C19.3967 7.21041 19.1548 6.62625 18.7241 6.19555L18.3705 6.5491C18.7075 6.88604 18.8967 7.34302 18.8967 7.81953H19.3967ZM19.3967 16.3261V7.81953H18.8967V16.3261H19.3967ZM19.3957 16.3653C19.3964 16.3523 19.3967 16.3392 19.3967 16.3261H18.8967C18.8967 16.3307 18.8966 16.3351 18.8964 16.3395L19.3957 16.3653ZM18.8961 16.352C18.8914 19.2207 18.1061 21.4055 16.7517 22.8766L17.1195 23.2153C18.5808 21.6282 19.3912 19.3099 19.3961 16.3528L18.8961 16.352ZM16.7517 22.8766C15.3914 24.3541 13.4833 25.0827 11.2995 25.0827V25.5827C13.5973 25.5827 15.6484 24.8131 17.1195 23.2153L16.7517 22.8766ZM11.2995 25.0827C9.13461 25.0827 7.58547 24.5952 6.44751 23.7872L6.15804 24.1949C7.40049 25.077 9.05832 25.5827 11.2995 25.5827V25.0827ZM6.44751 23.7872C5.31061 22.9799 4.60989 21.8711 4.10895 20.6761L3.64783 20.8694C4.16997 22.1149 4.91878 23.3149 6.15804 24.1949L6.44751 23.7872ZM4.10895 20.6761C4.10746 20.6725 4.10604 20.6689 4.10471 20.6653L3.63515 20.8371C3.63912 20.8479 3.64334 20.8587 3.64782 20.8694L4.10895 20.6761ZM4.10472 20.6653L1.55951 13.7067L1.08993 13.8784L3.63514 20.8371L4.10472 20.6653ZM1.55926 13.706L1.559 13.7053L1.08992 13.8784L1.09017 13.8791L1.55926 13.706ZM1.55902 13.7054C1.38618 13.2366 1.33106 12.7642 1.43611 12.3385L0.950675 12.2187C0.815302 12.7672 0.893004 13.3444 1.0899 13.8784L1.55902 13.7054ZM1.43611 12.3385C1.54286 11.9059 1.8108 11.5409 2.24396 11.2948L1.99699 10.8601C1.44715 11.1724 1.09104 11.6498 0.950675 12.2187L1.43611 12.3385ZM1.98767 11.2893L3.14131 12.0126L3.40692 11.589L2.25328 10.8656L1.98767 11.2893ZM3.29643 11.5518C3.02926 11.5278 2.74784 11.5836 2.49104 11.7295L2.73808 12.1642C2.9051 12.0693 3.08456 12.0348 3.2518 12.0498L3.29643 11.5518ZM2.49028 11.7299L2.49019 11.73L2.73875 12.1638L2.73884 12.1638L2.49028 11.7299ZM2.49099 11.7295C2.17449 11.9093 1.9947 12.1618 1.92155 12.4582L2.40699 12.578C2.44655 12.4177 2.53827 12.2777 2.73795 12.1643L2.49099 11.7295ZM1.92155 12.4582C1.84677 12.7613 1.87942 13.1293 2.02835 13.5329L2.49744 13.3599C2.37271 13.0218 2.36247 12.7584 2.40699 12.578L1.92155 12.4582ZM2.02834 13.5329L2.02883 13.5343L2.49793 13.3612L2.49744 13.3599L2.02834 13.5329ZM2.02859 13.5336L4.57027 20.4826L5.03985 20.3108L2.49817 13.3619L2.02859 13.5336ZM4.5746 20.4936C5.05392 21.6336 5.70568 22.6472 6.73698 23.3795L7.02645 22.9718C6.09714 22.312 5.49351 21.3891 5.03552 20.2998L4.5746 20.4936ZM6.73698 23.3795C7.77048 24.1133 9.21095 24.5827 11.2995 24.5827V24.0827C9.28735 24.0827 7.95552 23.6315 7.02645 22.9718L6.73698 23.3795ZM11.2995 24.5827C13.3691 24.5827 15.1343 23.8952 16.3838 22.538L16.016 22.1993C14.8771 23.4363 13.2548 24.0827 11.2995 24.0827V24.5827ZM16.3838 22.538C17.6353 21.1788 18.3961 19.1191 18.3961 16.3261H17.8961C17.8961 19.0305 17.1604 20.9564 16.016 22.1993L16.3838 22.538ZM18.3961 16.3261C18.3961 16.3217 18.3962 16.3173 18.3964 16.313L17.8971 16.2876C17.8964 16.3004 17.8961 16.3132 17.8961 16.3261H18.3961ZM17.8967 7.81953V16.3003H18.3967V7.81953H17.8967ZM17.6634 7.2562C17.8128 7.40561 17.8967 7.60824 17.8967 7.81953H18.3967C18.3967 7.47563 18.2601 7.14582 18.017 6.90265L17.6634 7.2562ZM17.1001 7.02287C17.3114 7.02287 17.514 7.1068 17.6634 7.25621L18.017 6.90265C17.7738 6.65948 17.444 6.52287 17.1001 6.52287V7.02287ZM16.5368 7.2562C16.6862 7.1068 16.8888 7.02287 17.1001 7.02287V6.52287C16.7562 6.52287 16.4264 6.65948 16.1832 6.90265L16.5368 7.2562ZM16.3034 7.81953C16.3034 7.60824 16.3874 7.40561 16.5368 7.25621L16.1832 6.90265C15.94 7.14582 15.8034 7.47563 15.8034 7.81953H16.3034ZM16.3034 13.2328V7.81953H15.8034V13.2328H16.3034ZM15.5534 13.9828C15.9676 13.9828 16.3034 13.647 16.3034 13.2328H15.8034C15.8034 13.3709 15.6915 13.4828 15.5534 13.4828V13.9828ZM15.4908 13.9802C15.5114 13.9819 15.5323 13.9828 15.5534 13.9828V13.4828C15.5463 13.4828 15.5392 13.4825 15.5322 13.4819L15.4908 13.9802ZM14.8028 13.2328C14.8028 13.6262 15.1056 13.9487 15.4911 13.9803L15.5318 13.4819C15.4037 13.4714 15.3028 13.3638 15.3028 13.2328H14.8028ZM14.8028 4.72616V13.2328H15.3028V4.72616H14.8028ZM14.5695 4.16284C14.7189 4.31224 14.8028 4.51487 14.8028 4.72616H15.3028C15.3028 4.38226 15.1662 4.05245 14.923 3.80928L14.5695 4.16284ZM14.0061 3.9295C14.2174 3.9295 14.42 4.01343 14.5695 4.16284L14.923 3.80928C14.6798 3.56611 14.35 3.4295 14.0061 3.4295V3.9295ZM13.4428 4.16284C13.5922 4.01343 13.7948 3.9295 14.0061 3.9295V3.4295C13.6622 3.4295 13.3324 3.56611 13.0893 3.80928L13.4428 4.16284ZM13.2095 4.71748C13.2118 4.50933 13.2955 4.31019 13.4428 4.16284L13.0893 3.80928C12.8494 4.04912 12.7132 4.37324 12.7095 4.71204L13.2095 4.71748ZM13.2095 12.4595V4.71476H12.7095V12.4595H13.2095ZM12.4595 13.2095C12.8737 13.2095 13.2095 12.8737 13.2095 12.4595H12.7095C12.7095 12.5975 12.5976 12.7095 12.4595 12.7095V13.2095ZM12.1139 13.1252C12.2176 13.1791 12.3354 13.2095 12.4595 13.2095V12.7095C12.4176 12.7095 12.3787 12.6993 12.3445 12.6816L12.1139 13.1252ZM11.7095 12.4594C11.7095 12.7494 11.8741 13.0006 12.1139 13.1252L12.3445 12.6815C12.2637 12.6396 12.2095 12.5556 12.2095 12.4594H11.7095ZM11.7095 4.72616V12.4594H12.2095V4.72616H11.7095ZM11.7095 4.70924L11.7095 4.72518L12.2095 4.72713L12.2095 4.71119L11.7095 4.70924ZM11.7095 3.17953V4.71022H12.2095V3.17953H11.7095ZM11.4762 2.61621C11.6256 2.76561 11.7095 2.96824 11.7095 3.17953H12.2095C12.2095 2.83564 12.0729 2.50583 11.8298 2.26266L11.4762 2.61621ZM10.9129 2.38287C11.1242 2.38287 11.3268 2.46681 11.4762 2.61621L11.8298 2.26266C11.5866 2.01949 11.2568 1.88287 10.9129 1.88287V2.38287ZM10.3496 2.61621C10.499 2.46681 10.7016 2.38287 10.9129 2.38287V1.88287C10.569 1.88287 10.2392 2.01949 9.996 2.26266L10.3496 2.61621ZM10.1162 3.17953C10.1162 2.96824 10.2002 2.76561 10.3496 2.61621L9.996 2.26266C9.75283 2.50583 9.61622 2.83564 9.61622 3.17953H10.1162ZM10.1162 5.46472V3.17953H9.61622V5.46472H10.1162ZM10.1165 5.49746L10.1162 5.4626L9.61623 5.46685L9.61653 5.50171L10.1165 5.49746ZM10.1165 12.5079V5.49959H9.61652V12.5079H10.1165ZM9.36652 13.2579C9.78073 13.2579 10.1165 12.9221 10.1165 12.5079H9.61652C9.61652 12.6459 9.50459 12.7579 9.36652 12.7579V13.2579ZM8.61652 12.5079C8.61652 12.9221 8.9523 13.2579 9.36652 13.2579V12.7579C9.22844 12.7579 9.11652 12.6459 9.11652 12.5079H8.61652ZM8.61652 12.4769V12.5079H9.11652V12.4769H8.61652ZM8.61626 12.4637L8.61655 12.4811L9.11648 12.4726L9.11618 12.4552L8.61626 12.4637ZM8.61622 5.47466V12.4595H9.11622V5.47466H8.61622ZM8.38318 4.93627C8.5281 5.08119 8.61143 5.2762 8.61629 5.48061L9.11615 5.46871C9.10823 5.136 8.97262 4.81859 8.73673 4.58271L8.38318 4.93627ZM7.81986 4.70293C8.03115 4.70293 8.23378 4.78686 8.38318 4.93627L8.73673 4.58271C8.49356 4.33954 8.16375 4.20293 7.81986 4.20293V4.70293ZM7.25654 4.93627C7.40594 4.78686 7.60857 4.70293 7.81986 4.70293V4.20293C7.47596 4.20293 7.14615 4.33954 6.90298 4.58271L7.25654 4.93627ZM7.0232 5.49959C7.0232 5.2883 7.10714 5.08567 7.25654 4.93627L6.90298 4.58271C6.65981 4.82588 6.5232 5.15569 6.5232 5.49959H7.0232ZM7.0232 16.3262V5.49959H6.5232V16.3262H7.0232ZM6.34984 17.0723C6.72818 17.0337 7.0232 16.7146 7.0232 16.3262H6.5232C6.5232 16.4554 6.42491 16.5621 6.29915 16.5749L6.34984 17.0723ZM6.15464 17.0668C6.21861 17.0771 6.28442 17.0791 6.35043 17.0722L6.29857 16.5749C6.27684 16.5772 6.25507 16.5765 6.23374 16.5731L6.15464 17.0668ZM5.95048 17.0033C6.01421 17.0337 6.08293 17.0554 6.15499 17.0669L6.23339 16.5731C6.20953 16.5693 6.18687 16.5621 6.1658 16.5521L5.95048 17.0033ZM5.58012 16.6136C5.6541 16.7919 5.78937 16.9268 5.95088 17.0035L6.16541 16.5519C6.1113 16.5262 6.06666 16.4816 6.04192 16.422L5.58012 16.6136ZM3.82613 12.3875L5.58012 16.6136L6.04192 16.422L4.28793 12.1959L3.82613 12.3875ZM4.27563 12.1704C4.07265 11.8046 3.69714 11.5877 3.29653 11.5518L3.25186 12.0498C3.50561 12.0726 3.72437 12.2074 3.83843 12.413L4.27563 12.1704ZM1.98775 11.2892L3.14138 12.0126L3.40701 11.589L2.25338 10.8656L1.98775 11.2892ZM5.17284 11.7274C4.54318 10.531 3.06441 10.2535 1.99706 10.86L2.24408 11.2948C3.10169 10.8074 4.2507 11.0489 4.73038 11.9603L5.17284 11.7274ZM5.20186 11.7892C5.19313 11.7682 5.18345 11.7475 5.17284 11.7274L4.73038 11.9603C4.73392 11.967 4.73715 11.9739 4.74006 11.9809L5.20186 11.7892ZM6.0041 13.7221L5.20186 11.7892L4.74006 11.9809L5.5423 13.9138L6.0041 13.7221ZM5.5232 5.49959V13.818H6.0232V5.49959H5.5232ZM6.19588 3.87561C5.76517 4.30631 5.5232 4.89048 5.5232 5.49959H6.0232C6.0232 5.02308 6.21249 4.5661 6.54943 4.22916L6.19588 3.87561ZM7.81986 3.20293C7.21075 3.20293 6.62658 3.4449 6.19588 3.87561L6.54943 4.22916C6.88637 3.89222 7.34336 3.70293 7.81986 3.70293V3.20293ZM8.99403 3.52576C8.64178 3.31623 8.23667 3.20293 7.81986 3.20293V3.70293C8.14591 3.70293 8.46282 3.79155 8.73841 3.95548L8.99403 3.52576ZM8.61622 3.17953V3.74062H9.11622V3.17953H8.61622ZM9.28889 1.55555C8.85819 1.98626 8.61622 2.57042 8.61622 3.17953H9.11622C9.11622 2.70303 9.30551 2.24604 9.64245 1.9091L9.28889 1.55555ZM3.29992 11.5521L3.29984 11.5521L3.24839 12.0495L3.24847 12.0495L3.29992 11.5521ZM3.14131 12.0126L3.92423 12.5035L4.18984 12.0799L3.40692 11.589L3.14131 12.0126ZM3.14138 12.0126L3.92422 12.5035L4.18984 12.0799L3.40701 11.589L3.14138 12.0126ZM3.14131 12.0126L3.92423 12.5035L4.18984 12.0799L3.40692 11.589L3.14131 12.0126ZM3.14138 12.0126L3.92422 12.5035L4.18984 12.0799L3.40701 11.589L3.14138 12.0126Z" fill="black"/>
</svg>
