<svg width="12" height="12" viewBox="0 0 12 12" fill="none" xmlns="http://www.w3.org/2000/svg">
<path d="M10.2 0H1.8C1.32261 0 0.864773 0.199624 0.527208 0.554956C0.189642 0.910288 0 1.39222 0 1.89474V11.3684C0.000183214 11.4803 0.0286133 11.5902 0.0823803 11.6867C0.136147 11.7833 0.21332 11.8631 0.306 11.9179C0.395673 11.9714 0.496927 11.9997 0.6 12C0.70769 12 0.813387 11.9694 0.906 11.9116L3.6 10.1937C3.69958 10.1313 3.8142 10.1006 3.93 10.1053H10.2C10.6774 10.1053 11.1352 9.90564 11.4728 9.55031C11.8104 9.19497 12 8.71304 12 8.21053V1.89474C12 1.39222 11.8104 0.910288 11.4728 0.554956C11.1352 0.199624 10.6774 0 10.2 0ZM3.6 5.68421C3.48133 5.68421 3.36533 5.64717 3.26666 5.57777C3.16799 5.50837 3.09108 5.40973 3.04567 5.29433C3.00026 5.17892 2.98838 5.05193 3.01153 4.92942C3.03468 4.8069 3.09182 4.69437 3.17574 4.60604C3.25965 4.51771 3.36656 4.45756 3.48295 4.43319C3.59933 4.40882 3.71997 4.42133 3.82961 4.46913C3.93925 4.51693 4.03295 4.59788 4.09888 4.70174C4.16481 4.80561 4.2 4.92772 4.2 5.05263C4.2 5.22014 4.13679 5.38078 4.02426 5.49923C3.91174 5.61767 3.75913 5.68421 3.6 5.68421ZM6 5.68421C5.88133 5.68421 5.76533 5.64717 5.66666 5.57777C5.56799 5.50837 5.49109 5.40973 5.44567 5.29433C5.40026 5.17892 5.38838 5.05193 5.41153 4.92942C5.43468 4.8069 5.49182 4.69437 5.57574 4.60604C5.65965 4.51771 5.76656 4.45756 5.88295 4.43319C5.99933 4.40882 6.11997 4.42133 6.22961 4.46913C6.33925 4.51693 6.43295 4.59788 6.49888 4.70174C6.56481 4.80561 6.6 4.92772 6.6 5.05263C6.6 5.22014 6.53679 5.38078 6.42426 5.49923C6.31174 5.61767 6.15913 5.68421 6 5.68421ZM8.4 5.68421C8.28133 5.68421 8.16533 5.64717 8.06666 5.57777C7.96799 5.50837 7.89109 5.40973 7.84567 5.29433C7.80026 5.17892 7.78838 5.05193 7.81153 4.92942C7.83468 4.8069 7.89182 4.69437 7.97574 4.60604C8.05965 4.51771 8.16656 4.45756 8.28295 4.43319C8.39933 4.40882 8.51997 4.42133 8.62961 4.46913C8.73925 4.51693 8.83295 4.59788 8.89888 4.70174C8.96481 4.80561 9 4.92772 9 5.05263C9 5.22014 8.93679 5.38078 8.82426 5.49923C8.71174 5.61767 8.55913 5.68421 8.4 5.68421Z" fill="#A4A29D"/>
</svg>
