<svg width="12" height="12" viewBox="0 0 12 12" fill="none" xmlns="http://www.w3.org/2000/svg">
<path d="M5.847 0.0105L6 0C6.27186 1.14643e-05 6.53451 0.098464 6.7394 0.277151C6.94428 0.455837 7.07753 0.70267 7.1145 0.972L7.125 1.125V4.8735L10.875 4.875C11.1469 4.87501 11.4095 4.97346 11.6144 5.15215C11.8193 5.33084 11.9525 5.57767 11.9895 5.847L12 6C12 6.27186 11.9015 6.53451 11.7228 6.7394C11.5442 6.94428 11.2973 7.07753 11.028 7.1145L10.875 7.125L7.125 7.1235V10.875C7.12499 11.1469 7.02654 11.4095 6.84785 11.6144C6.66916 11.8193 6.42233 11.9525 6.153 11.9895L6 12C5.72814 12 5.46549 11.9015 5.2606 11.7228C5.05572 11.5442 4.92247 11.2973 4.8855 11.028L4.875 10.875V7.1235L1.125 7.125C0.853144 7.12499 0.590487 7.02654 0.385604 6.84785C0.180721 6.66916 0.0474724 6.42233 0.0105 6.153L0 6C1.14643e-05 5.72814 0.098464 5.46549 0.277151 5.2606C0.455837 5.05572 0.70267 4.92247 0.972 4.8855L1.125 4.875L4.875 4.8735V1.125C4.87501 0.853144 4.97346 0.590487 5.15215 0.385604C5.33084 0.180721 5.57767 0.0474724 5.847 0.0105L6 0L5.847 0.0105Z" fill="white"/>
</svg>
