<svg width="16" height="14" viewBox="0 0 16 14" fill="none" xmlns="http://www.w3.org/2000/svg">
<path d="M16 1.54286C15.4116 1.80359 14.7795 1.97975 14.115 2.05938C14.8007 1.64912 15.3136 1.00342 15.5582 0.242768C14.914 0.625391 14.209 0.894716 13.4738 1.03903C12.9794 0.511148 12.3245 0.161257 11.6109 0.0436835C10.8973 -0.0738904 10.1648 0.0474306 9.52717 0.388811C8.88955 0.730191 8.38247 1.27253 8.08467 1.93163C7.78686 2.59073 7.71499 3.3297 7.88021 4.03384C6.57496 3.9683 5.29807 3.62904 4.13242 3.03809C2.96677 2.44713 1.93841 1.61767 1.11407 0.603554C0.832203 1.08977 0.670131 1.6535 0.670131 2.25387C0.669817 2.79434 0.802912 3.32653 1.05761 3.80322C1.3123 4.27992 1.68073 4.68638 2.13019 4.98654C1.60893 4.96995 1.09918 4.8291 0.643354 4.57572V4.618C0.643302 5.37603 0.905511 6.11073 1.38549 6.69745C1.86547 7.28416 2.53365 7.68674 3.27667 7.83688C2.79312 7.96775 2.28615 7.98703 1.79406 7.89326C2.0037 8.5455 2.41205 9.11586 2.96194 9.52449C3.51184 9.93312 4.17575 10.1596 4.86074 10.1721C3.69794 11.0849 2.26188 11.5801 0.783581 11.5779C0.521717 11.578 0.260073 11.5627 0 11.5321C1.50056 12.4969 3.24731 13.009 5.03127 13.007C11.0702 13.007 14.3715 8.0053 14.3715 3.66741C14.3715 3.52648 14.368 3.38414 14.3617 3.24321C15.0038 2.77882 15.5581 2.20376 15.9986 1.54498L16 1.54286V1.54286Z" fill="white"/>
</svg>
