<svg width="12" height="12" viewBox="0 0 12 12" fill="none" xmlns="http://www.w3.org/2000/svg">
<path d="M6 6C5.20435 6 4.44129 5.68393 3.87868 5.12132C3.31607 4.55871 3 3.79565 3 3C3 2.20435 3.31607 1.44129 3.87868 0.87868C4.44129 0.31607 5.20435 0 6 0C6.79565 0 7.55871 0.31607 8.12132 0.87868C8.68393 1.44129 9 2.20435 9 3C9 3.79565 8.68393 4.55871 8.12132 5.12132C7.55871 5.68393 6.79565 6 6 6ZM6 8.25C8.3895 8.25 10.5337 8.67825 12 10.5472V12H0V10.5472C1.46625 8.6775 3.6105 8.25 6 8.25Z" fill="#A4A29D"/>
</svg>
